<svg width="68" height="68" viewBox="0 0 68 68" fill="none" xmlns="http://www.w3.org/2000/svg">
<path d="M35.4167 19.55C40.46 19.55 42.33 21.9583 42.5 25.5H48.7617C48.5633 20.6267 45.5883 16.15 39.6667 14.705V8.5H31.1667V14.62C29.665 14.96 28.2483 15.47 26.9733 16.15L31.1383 20.315C32.3 19.8333 33.7167 19.55 35.4167 19.55ZM15.1017 11.5033L11.5033 15.1017L21.25 24.8483C21.25 30.7417 25.67 33.9433 32.3283 35.9267L42.2733 45.8717C41.31 47.2317 39.2983 48.45 35.4167 48.45C29.58 48.45 27.285 45.8433 26.9733 42.5H20.74C21.08 48.705 25.7267 52.19 31.1667 53.3517V59.5H39.6667V53.4083C42.3867 52.8983 44.8233 51.85 46.6083 50.235L52.8983 56.525L56.4967 52.9267L15.1017 11.5033Z" fill="black"/>
</svg>
